<?xml version="1.0" encoding="UTF-8"?>
<svg width="120px" height="36px" viewBox="0 0 120 36" version="1.1" xmlns="http://www.w3.org/2000/svg" xmlns:xlink="http://www.w3.org/1999/xlink">
    <title>omega-black</title>
    <defs>
        <path d="M9.22374429,4.07630227 C8.34702758,4.36390459 7.57382374,4.80704029 6.90410959,5.40572267 C6.23439543,6.00440505 5.70472037,6.76448549 5.31506849,7.68598679 C4.92541662,8.6074881 4.73059361,9.70212132 4.73059361,10.9699193 C4.73059361,12.1320674 4.89193142,13.214962 5.21461187,14.2186354 C5.53729233,15.2223088 5.95433534,16.1496656 6.46575342,17.0007337 C6.97717151,17.8518018 7.54642,18.6382943 8.17351598,19.3602348 C8.80061196,20.0821753 9.41247799,20.7483462 10.0091324,21.3587674 L10.0091324,24 L0,24 L0,20.3903155 L1.49771689,20.3903155 C2.36225699,20.3903155 3.08979918,20.4020542 3.6803653,20.4255319 C4.27093142,20.4490097 4.75494484,20.472487 5.13242009,20.4959648 C4.48705918,19.9442382 3.86301671,19.3719769 3.26027397,18.7087307 C2.65753123,18.0454846 2.12176795,17.3030122 1.65296804,16.4812913 C1.18416813,15.6595704 0.809742648,14.7703643 0.529680365,13.8136464 C0.249618082,12.8569285 0.109589041,11.8503354 0.109589041,10.7938371 C0.109589041,9.25604514 0.380514795,7.82979381 0.922374429,6.51504035 C1.46423406,5.2002869 2.24352612,4.0586989 3.26027397,3.09024211 C4.27702183,2.12178533 5.52206265,1.36463956 6.99543379,0.818782098 C8.46880493,0.272924637 10.136977,-4.97571119e-15 12,-4.97571119e-15 C13.863023,-4.97571119e-15 15.5311951,0.272924637 17.0045662,0.818782098 C18.4779374,1.36463956 19.7229782,2.11298131 20.739726,3.06382979 C21.7564739,4.01467827 22.5357659,5.1298542 23.0776256,6.40939105 C23.6194852,7.68892789 23.890411,9.06822445 23.890411,10.5473221 C23.890411,11.6625147 23.753426,12.7072585 23.4794521,13.6815847 C23.2054781,14.655911 22.8401849,15.5568557 22.3835616,16.3844461 C21.9269384,17.2120364 21.3942192,17.9633128 20.7853881,18.6382979 C20.1765571,19.3132829 19.5372941,19.9090216 18.8675799,20.4255319 C19.2450552,20.472487 19.7290686,20.4490097 20.3196347,20.4255319 C20.9102008,20.4020542 21.637743,20.3903155 22.5022831,20.3903155 L24,20.3903155 L24,24 L13.9908676,24 L13.9908676,21.3587674 C14.5996986,20.7483462 15.2146088,20.0821753 15.8356164,19.3602348 C16.4566241,18.6382943 17.0228285,17.8518018 17.5342466,17.0007337 C18.0456647,16.1496656 18.4627077,15.2223088 18.7853881,14.2186354 C19.1080686,13.214962 19.2694064,12.1320674 19.2694064,10.9699193 C19.2694064,9.70212132 19.0745834,8.6074881 18.6849315,7.68598679 C18.2952796,6.76448549 17.7656046,6.00440505 17.0958904,5.40572267 C16.4261763,4.80704029 15.6529724,4.36390459 14.7762557,4.07630227 C13.899539,3.78869996 12.9741297,3.64490095 12,3.64490095 C11.0258703,3.64490095 10.100461,3.78869996 9.22374429,4.07630227 Z" id="path-1"></path>
        <filter x="-45.8%" y="-29.2%" width="191.7%" height="191.7%" filterUnits="objectBoundingBox" id="filter-2">
            <feOffset dx="0" dy="4" in="SourceAlpha" result="shadowOffsetOuter1"></feOffset>
            <feGaussianBlur stdDeviation="3" in="shadowOffsetOuter1" result="shadowBlurOuter1"></feGaussianBlur>
            <feColorMatrix values="0 0 0 0 0   0 0 0 0 0   0 0 0 0 0  0 0 0 0.1 0" type="matrix" in="shadowBlurOuter1"></feColorMatrix>
        </filter>
    </defs>
    <g id="Omega-Dashboard" stroke="none" stroke-width="1" fill="none" fill-rule="evenodd">
        <g id="Desktop-HD" transform="translate(-39.000000, -20.000000)">
            <g id="omega-black" transform="translate(45.000000, 22.000000)">
                <g id="Ω">
                    <use fill="black" fill-opacity="1" filter="url(#filter-2)" xlink:href="#path-1"></use>
                    <use fill="#3B3E47" fill-rule="evenodd" xlink:href="#path-1"></use>
                </g>
                <path d="M40.7890625,21.2929688 C41.90625,21.2929688 42.9160156,21.0917969 43.8183594,20.6894531 C44.7207031,20.2871094 45.4921875,19.7265625 46.1328125,19.0078125 C46.7734375,18.2890625 47.265625,17.4335938 47.609375,16.4414062 C47.953125,15.4492188 48.125,14.359375 48.125,13.171875 C48.125,11.9765625 47.9570312,10.8808594 47.6210938,9.88476562 C47.2851562,8.88867188 46.8007812,8.03125 46.1679688,7.3125 C45.5351562,6.59375 44.7636719,6.03320312 43.8535156,5.63085938 C42.9433594,5.22851562 41.9140625,5.02734375 40.765625,5.02734375 C39.640625,5.02734375 38.625,5.22851562 37.71875,5.63085938 C36.8125,6.03320312 36.0410156,6.59375 35.4042969,7.3125 C34.7675781,8.03125 34.2753906,8.88867188 33.9277344,9.88476562 C33.5800781,10.8808594 33.40625,11.9765625 33.40625,13.171875 C33.40625,14.359375 33.5742188,15.4492188 33.9101562,16.4414062 C34.2460938,17.4335938 34.7304688,18.2890625 35.3632812,19.0078125 C35.9960938,19.7265625 36.7695312,20.2871094 37.6835938,20.6894531 C38.5976562,21.0917969 39.6328125,21.2929688 40.7890625,21.2929688 Z M40.7890625,19.59375 C40.03125,19.59375 39.3261719,19.4570312 38.6738281,19.1835938 C38.0214844,18.9101562 37.4550781,18.5039062 36.9746094,17.9648438 C36.4941406,17.4257812 36.1152344,16.7558594 35.8378906,15.9550781 C35.5605469,15.1542969 35.421875,14.2265625 35.421875,13.171875 C35.421875,12.1171875 35.5585938,11.1875 35.8320312,10.3828125 C36.1054688,9.578125 36.4824219,8.90625 36.9628906,8.3671875 C37.4433594,7.828125 38.0097656,7.41992188 38.6621094,7.14257812 C39.3144531,6.86523438 40.015625,6.7265625 40.765625,6.7265625 C41.515625,6.7265625 42.2167969,6.86523438 42.8691406,7.14257812 C43.5214844,7.41992188 44.0878906,7.828125 44.5683594,8.3671875 C45.0488281,8.90625 45.4257812,9.578125 45.6992188,10.3828125 C45.9726562,11.1875 46.109375,12.1171875 46.109375,13.171875 C46.109375,14.2265625 45.9726562,15.1542969 45.6992188,15.9550781 C45.4257812,16.7558594 45.0488281,17.4257812 44.5683594,17.9648438 C44.0878906,18.5039062 43.5253906,18.9101562 42.8808594,19.1835938 C42.2363281,19.4570312 41.5390625,19.59375 40.7890625,19.59375 Z M53.4335938,21 L53.4335938,13.4179688 C53.4335938,11.6054688 53.3789062,9.609375 53.2695312,7.4296875 L53.2695312,7.4296875 L53.3632812,7.4296875 C53.9101562,8.9453125 54.4570312,10.3476562 55.0039062,11.6367188 L55.0039062,11.6367188 L58.953125,21 L59.8320312,21 L63.78125,11.6367188 C64.296875,10.4335938 64.84375,9.03125 65.421875,7.4296875 L65.421875,7.4296875 L65.515625,7.4296875 C65.40625,9.6484375 65.3515625,11.6445312 65.3515625,13.4179688 L65.3515625,13.4179688 L65.3515625,21 L67.2617188,21 L67.2617188,5.3203125 L64.5078125,5.3203125 L60.8164062,14.1914062 C60.4492188,15.0507812 59.984375,16.2734375 59.421875,17.859375 L59.421875,17.859375 L59.3632812,17.859375 C58.8554688,16.4296875 58.390625,15.2070312 57.96875,14.1914062 L57.96875,14.1914062 L54.2773438,5.3203125 L51.5234375,5.3203125 L51.5234375,21 L53.4335938,21 Z M81.1953125,21 L81.1953125,19.2773438 L73.15625,19.2773438 L73.15625,13.828125 L79.9179688,13.828125 L79.9179688,12.1054688 L73.15625,12.1054688 L73.15625,7.04296875 L80.7617188,7.04296875 L80.7617188,5.3203125 L71.2460938,5.3203125 L71.2460938,21 L81.1953125,21 Z M92.1523438,21.2929688 C92.6054688,21.2929688 93.0644531,21.2695312 93.5292969,21.2226562 C93.9941406,21.1757812 94.4296875,21.1132812 94.8359375,21.0351562 C95.2421875,20.9570312 95.6035156,20.8730469 95.9199219,20.7832031 C96.2363281,20.6933594 96.4765625,20.6054688 96.640625,20.5195312 L96.640625,20.5195312 L96.640625,12.9375 L91.15625,12.9375 L91.15625,14.6601562 L94.7304688,14.6601562 L94.7304688,19.3242188 C94.3945312,19.4101562 94.0097656,19.4765625 93.5761719,19.5234375 C93.1425781,19.5703125 92.703125,19.59375 92.2578125,19.59375 C91.296875,19.59375 90.4238281,19.4707031 89.6386719,19.2246094 C88.8535156,18.9785156 88.1855469,18.5976562 87.6347656,18.0820312 C87.0839844,17.5664062 86.6582031,16.9140625 86.3574219,16.125 C86.0566406,15.3359375 85.90625,14.3984375 85.90625,13.3125 C85.90625,12.203125 86.0898438,11.2363281 86.4570312,10.4121094 C86.8242188,9.58789062 87.3164062,8.90234375 87.9335938,8.35546875 C88.5507812,7.80859375 89.2636719,7.40039062 90.0722656,7.13085938 C90.8808594,6.86132812 91.7304688,6.7265625 92.6210938,6.7265625 C93.2304688,6.7265625 93.8398438,6.77929688 94.4492188,6.88476562 C95.0585938,6.99023438 95.5976562,7.12109375 96.0664062,7.27734375 L96.0664062,7.27734375 L96.0664062,5.58984375 C95.8867188,5.51171875 95.6640625,5.4375 95.3984375,5.3671875 C95.1328125,5.296875 94.84375,5.23632812 94.53125,5.18554688 C94.21875,5.13476562 93.890625,5.09570312 93.546875,5.06835938 C93.203125,5.04101562 92.859375,5.02734375 92.515625,5.02734375 C91.2421875,5.02734375 90.0761719,5.22851562 89.0175781,5.63085938 C87.9589844,6.03320312 87.0488281,6.60546875 86.2871094,7.34765625 C85.5253906,8.08984375 84.9355469,8.984375 84.5175781,10.03125 C84.0996094,11.078125 83.890625,12.2421875 83.890625,13.5234375 C83.890625,14.703125 84.0703125,15.7734375 84.4296875,16.734375 C84.7890625,17.6953125 85.3164062,18.5117188 86.0117188,19.1835938 C86.7070312,19.8554688 87.5683594,20.375 88.5957031,20.7421875 C89.6230469,21.109375 90.8085938,21.2929688 92.1523438,21.2929688 Z M100.976562,21 L102.851562,16.2773438 L109.402344,16.2773438 L111.277344,21 L113.351562,21 L106.964844,5.3203125 L105.3125,5.3203125 L98.9257812,21 L100.976562,21 Z M108.722656,14.5546875 L103.53125,14.5546875 L104.117188,13.078125 C104.757812,11.484375 105.425781,9.7109375 106.121094,7.7578125 L106.121094,7.7578125 L106.167969,7.7578125 C106.839844,9.6796875 107.496094,11.453125 108.136719,13.078125 L108.136719,13.078125 L108.722656,14.5546875 Z" id="OMEGA" fill="#3B3E47" fill-rule="nonzero"></path>
            </g>
        </g>
    </g>
</svg>